<!DOCTYPE svg PUBLIC "-//W3C//DTD SVG 1.1//EN" "http://www.w3.org/Graphics/SVG/1.1/DTD/svg11.dtd">
<!-- Uploaded to: SVG Repo, www.svgrepo.com, Transformed by: SVG Repo Mixer Tools -->
<svg fill="#c83c3c" version="1.1" id="Capa_1" xmlns="http://www.w3.org/2000/svg" xmlns:xlink="http://www.w3.org/1999/xlink" viewBox="0 0 297 297" xml:space="preserve" width="800px" height="800px" stroke="#c83c3c">
<g id="SVGRepo_bgCarrier" stroke-width="0"/>
<g id="SVGRepo_tracerCarrier" stroke-linecap="round" stroke-linejoin="round"/>
<g id="SVGRepo_iconCarrier"> <g> <path d="M199.192,154.551h-30.146c-2.619,8.878-10.832,15.38-20.546,15.38c-9.715,0-17.927-6.502-20.547-15.38H97.808v34.036 h101.385V154.551z"/> <rect x="97.808" y="83.245" width="101.385" height="13.066"/> <path d="M139.171,148.5c0,5.144,4.185,9.329,9.329,9.329c5.144,0,9.328-4.185,9.328-9.329s-4.185-9.329-9.328-9.329 C143.356,139.171,139.171,143.356,139.171,148.5z"/> <path d="M148.5,0C92.057,0,46.138,45.919,46.138,102.362v92.277C46.138,251.081,92.057,297,148.5,297 s102.362-45.919,102.362-102.362v-92.277C250.862,45.919,204.943,0,148.5,0z M133.12,34.793h30.759 c3.342,0,6.051,2.709,6.051,6.051s-2.709,6.051-6.051,6.051H133.12c-3.342,0-6.051-2.709-6.051-6.051S129.779,34.793,133.12,34.793 z M163.879,262.207H133.12c-3.342,0-6.051-2.709-6.051-6.051c0-3.342,2.709-6.051,6.051-6.051h30.759 c3.342,0,6.051,2.709,6.051,6.051C169.93,259.498,167.221,262.207,163.879,262.207z M214.32,221.319 c0,4.178-3.386,7.564-7.564,7.564H90.244c-4.178,0-7.564-3.386-7.564-7.564V75.681c0-4.178,3.386-7.564,7.564-7.564h116.512 c4.178,0,7.564,3.386,7.564,7.564V221.319z"/> <rect x="97.808" y="200.689" width="101.385" height="13.066"/> <path d="M97.808,142.449h30.146c2.619-8.878,10.832-15.379,20.547-15.379c9.715,0,17.927,6.502,20.546,15.379h30.146v-34.036 H97.808V142.449z"/> </g> </g>
</svg>