<?xml version="1.0" encoding="iso-8859-1"?>
<!-- Uploaded to: SVG Repo, www.svgrepo.com, Generator: SVG Repo Mixer Tools -->
<svg height="800px" width="800px" version="1.1" id="Layer_1" xmlns="http://www.w3.org/2000/svg" xmlns:xlink="http://www.w3.org/1999/xlink" 
	 viewBox="0 0 512 512" xml:space="preserve">
<path style="fill:#FFB150;" d="M220.115,178.087h-19.768c-9.22,0-16.696-7.475-16.696-16.696s7.475-16.696,16.696-16.696h16.696
	l-37.565-84.523c-3.272-7.361,2.116-15.651,10.171-15.651h60.786V22.261C250.435,9.966,260.401,0,272.696,0
	s22.261,9.966,22.261,22.261v22.261h60.786c8.055,0,13.442,8.29,10.171,15.651l-37.565,84.523h16.696
	c9.22,0,16.696,7.475,16.696,16.696s-7.475,16.696-16.696,16.696h-19.768c11.276,0,20.772,8.432,22.105,19.63l25.489,214.109
	H172.522l25.49-214.109C199.344,186.519,208.839,178.087,220.115,178.087z"/>
<path style="fill:#D18839;" d="M365.913,60.172l-37.565,84.523h16.696c9.22,0,16.696,7.475,16.696,16.696
	s-7.475,16.696-16.696,16.696h-74.841c-11.276,0-20.772,8.432-22.105,19.63l-25.489,214.109h-50.087l25.49-214.109
	c1.333-11.197,10.829-19.63,22.105-19.63h-19.769c-9.22,0-16.696-7.475-16.696-16.696s7.475-16.696,16.696-16.696h16.696
	l-37.565-84.523c-3.272-7.361,2.116-15.651,10.171-15.651h60.786V22.261C250.435,9.966,260.401,0,272.696,0
	s22.261,9.966,22.261,22.261v22.261h60.786C363.797,44.522,369.185,52.812,365.913,60.172z"/>
<path style="fill:#3D3D3D;" d="M81.809,503.652c0,4.611-3.738,8.348-8.348,8.348h-1.113c-4.61,0-8.348-3.736-8.348-8.348
	c0-4.611,3.738-8.348,8.348-8.348h1.113C78.071,495.304,81.809,499.041,81.809,503.652z M38.957,495.304h-1.113
	c-4.61,0-8.348,3.736-8.348,8.348c0,4.611,3.738,8.348,8.348,8.348h1.113c4.61,0,8.348-3.736,8.348-8.348
	C47.304,499.041,43.567,495.304,38.957,495.304z M439.652,495.304H105.739c-4.61,0-8.348,3.736-8.348,8.348
	c0,4.611,3.738,8.348,8.348,8.348h333.913c4.61,0,8.348-3.736,8.348-8.348C448,499.041,444.262,495.304,439.652,495.304z
	 M474.156,495.304h-1.113c-4.61,0-8.348,3.736-8.348,8.348c0,4.611,3.738,8.348,8.348,8.348h1.113c4.61,0,8.348-3.736,8.348-8.348
	C482.504,499.041,478.767,495.304,474.156,495.304z"/>
<path style="fill:#B2682F;" d="M417.391,489.739L417.391,489.739c0,12.295-9.966,22.261-22.261,22.261h-244.87
	C137.966,512,128,502.034,128,489.739l0,0c0-12.295,9.966-22.261,22.261-22.261h50.087c-36.883,0-66.783-29.9-66.783-66.783l0,0
	c0-6.147,4.983-11.13,11.13-11.13h256c6.147,0,11.13,4.983,11.13,11.13l0,0c0,36.883-29.9,66.783-66.783,66.783h50.087
	C407.425,467.478,417.391,477.444,417.391,489.739z"/>
<path style="fill:#FFFFFF;" d="M325.285,308.676c-4.269,0-7.909-3.259-8.303-7.593l-8.077-88.848
	c-0.417-4.592,2.966-8.652,7.558-9.069c4.589-0.421,8.652,2.965,9.069,7.556l8.077,88.85c0.417,4.591-2.966,8.652-7.558,9.069
	C325.793,308.664,325.539,308.676,325.285,308.676z M336.661,333.156l-0.127-1.391c-0.417-4.594-4.479-7.976-9.069-7.559
	c-4.591,0.417-7.975,4.478-7.558,9.069l0.127,1.394c0.394,4.335,4.035,7.591,8.303,7.591c0.254,0,0.509-0.011,0.766-0.035
	C333.695,341.809,337.079,337.747,336.661,333.156z"/>
<path style="fill:#D18839;" d="M411.826,400.696L411.826,400.696c0,0.17-0.001,0.343-0.002,0.513
	c-0.184,24.419-20.291,44.009-44.711,44.009h-75.88c-33.089,0-60.541-24.07-65.842-55.652h175.304
	C406.843,389.565,411.826,394.549,411.826,400.696z M395.13,467.478h-50.087H200.348h-22.261c-6.147,0-11.13,4.984-11.13,11.13
	s4.983,11.13,11.13,11.13h233.739c1.999,0,3.87-0.533,5.492-1.457C416.564,476.671,406.933,467.478,395.13,467.478z"/>
<path style="fill:#B2682F;" d="M360.769,166.957c-2.294,6.48-8.459,11.13-15.725,11.13H200.348c-9.22,0-16.696-7.475-16.696-16.696
	s7.475-16.696,16.696-16.696h16.696l-37.565-84.522c-3.272-7.362,2.116-15.652,10.171-15.652h38.957
	c-8.055,0-13.442,8.29-10.171,15.652c16.827,37.861,54.373,62.261,95.806,62.261h24.001l-9.894,22.261H256v5.565
	c0,9.22,7.475,16.696,16.696,16.696H360.769z M294.957,27.826h-44.522v16.696h44.522V27.826z"/>
</svg>