<?xml version="1.0" encoding="iso-8859-1"?>
<!-- Uploaded to: SVG Repo, www.svgrepo.com, Generator: SVG Repo Mixer Tools -->
<svg height="800px" width="800px" version="1.1" id="Layer_1" xmlns="http://www.w3.org/2000/svg" xmlns:xlink="http://www.w3.org/1999/xlink" 
	 viewBox="0 0 512 512" xml:space="preserve">
<path style="fill:#AAAAAA;" d="M447.428,512H63.137c-27.374,0-47.31-25.876-40.257-52.252L50.571,356.2l149.327,10.387h-58.664
	c-23.01,0-41.663,18.601-41.663,41.547v10.387c0,22.945,18.654,41.547,41.663,41.547h119.782v-89.229l52.079,3.623v85.606h67.703
	c23.01,0,41.663-18.601,41.663-41.547v-10.387c0-10.191-3.685-19.519-9.791-26.746l56.663,3.941l18.551,75.202
	C494.345,486.713,474.468,512,447.428,512z"/>
<path style="fill:#939393;" d="M420.834,396.626c-1.638-5.67-4.449-10.845-8.162-15.241l9.791,0.681v3.061
	C422.463,389.119,421.887,392.973,420.834,396.626z M487.886,460.528l-1.898-7.694c-6.158,14.886-20.817,25.775-38.56,25.775H63.137
	c-17.69,0-32.259-10.811-38.461-25.576l-1.795,6.714C15.827,486.124,35.763,512,63.137,512h384.29
	C474.468,512,494.345,486.713,487.886,460.528z"/>
<path style="fill:#D18839;" d="M512,302.023L512,302.023c0,60.659-51.504,108.637-112.191,104.515l-364.556-24.77
	c-8.746-0.609-16.326-6.266-19.376-14.464l0,0C2.848,332.285-1.454,258.907,3.339,221.862L27.048,38.636
	C29.906,16.542,48.772,0,71.113,0l0,0c15.411,0,27.904,12.458,27.904,27.826l0,0c0,15.368,12.493,27.826,27.904,27.826h112.708
	c6.457,0,11.567,5.446,11.137,11.871l-4.333,64.819c-1.36,20.352,11.322,39.023,30.779,45.313l191.658,61.961
	C494.839,249.481,512,274.313,512,302.023z"/>
<path style="fill:#B2682F;" d="M249.76,82.579c-2.587-6.193-3.798-13.028-3.327-20.065l0.288-4.313
	c2.667,2.196,4.294,5.59,4.045,9.322L249.76,82.579z M504.457,271.252c-16.436,40.775-57.803,68.641-104.648,65.458L35.252,311.942
	c-8.747-0.609-16.326-6.266-19.376-14.464l0,0c-6.521-17.529-10.856-44.67-12.958-72.052c-4.096,38.013,0.336,107.95,12.958,141.88
	l0,0c3.05,8.198,10.63,13.856,19.376,14.464l364.556,24.77C460.496,410.661,512,362.682,512,302.023l0,0
	C512,291.065,509.308,280.562,504.457,271.252z"/>
<path style="fill:#720000;" d="M232.833,0h0.156c6.147,0,11.13,4.983,11.13,11.13v66.783h-55.808V44.522
	C188.311,19.933,208.244,0,232.833,0z"/>
<path style="fill:#BC0000;" d="M14.871,133.565l12.284-94.929C30.013,16.542,48.879,0,71.219,0l0,0
	C86.63,0,99.123,12.458,99.123,27.826l0,0c0,15.368,12.493,27.826,27.904,27.826h112.708c6.457,0,11.567,5.446,11.137,11.871
	l-4.333,64.819c-0.028,0.408-0.04,0.816-0.056,1.223H14.871z"/>
<path style="fill:#B2682F;" d="M469.002,260.716L469.002,260.716c0,19.685-19.217,33.674-38.019,27.675l-209.985-67.006
	c-18.492-5.9-31.039-23.042-31.039-42.404V55.652h49.881c6.457,0,11.567,5.446,11.137,11.871l-4.333,64.819
	c-1.36,20.352,11.322,39.023,30.779,45.313l171.427,55.42C460.865,236.959,469.002,248.121,469.002,260.716z"/>
<path style="fill:#720000;" d="M199.473,378.435c0,4.902-0.225,9.751-0.64,14.545L33.814,381.768
	c-8.747-0.608-16.326-6.266-19.376-14.464l0,0C1.41,332.285-2.892,258.906,1.901,221.862l1.017-7.859
	c9.461-1.655,19.192-2.524,29.128-2.524C124.514,211.478,199.473,286.227,199.473,378.435z M132.502,108.522h22.323
	c4.61,0,8.348-3.738,8.348-8.348s-3.738-8.348-8.348-8.348h-22.323c-4.61,0-8.348,3.738-8.348,8.348
	S127.892,108.522,132.502,108.522z"/>
<path style="fill:#FFB150;" d="M243.416,141.913h-22.261c-4.61,0-8.348-3.738-8.348-8.348c0-4.61,3.738-8.348,8.348-8.348h22.261
	c4.61,0,8.348,3.738,8.348,8.348C251.764,138.175,248.026,141.913,243.416,141.913z M221.155,97.391h22.261
	c4.61,0,8.348-3.738,8.348-8.348c0-4.61-3.738-8.348-8.348-8.348h-22.261c-4.61,0-8.348,3.738-8.348,8.348
	C212.807,93.654,216.545,97.391,221.155,97.391z M250.813,159.49l-22.261,11.13c-4.124,2.061-5.796,7.076-3.733,11.199
	c1.463,2.925,4.41,4.616,7.473,4.616c1.254,0,2.528-0.284,3.726-0.883l22.261-11.13c4.124-2.061,5.796-7.076,3.733-11.199
	C259.952,159.1,254.938,157.428,250.813,159.49z M286.74,174.639c-4.361-1.491-9.107,0.839-10.597,5.202l-7.791,22.817
	c-1.489,4.362,0.839,9.108,5.202,10.597c0.894,0.305,1.803,0.45,2.698,0.45c3.473,0,6.715-2.183,7.899-5.653l7.791-22.817
	C293.432,180.874,291.103,176.129,286.74,174.639z M326.43,186.047c-4.362-1.489-9.108,0.839-10.597,5.202l-7.791,22.817
	c-1.489,4.362,0.839,9.108,5.202,10.597c0.894,0.305,1.803,0.45,2.698,0.45c3.473,0,6.715-2.183,7.899-5.653l7.791-22.817
	C333.123,192.283,330.793,187.538,326.43,186.047z M366.024,198.458c-4.36-1.491-9.107,0.839-10.597,5.202l-7.791,22.817
	c-1.489,4.362,0.839,9.108,5.202,10.597c0.894,0.305,1.803,0.45,2.698,0.45c3.473,0,6.715-2.183,7.899-5.653l7.791-22.817
	C372.717,204.693,370.387,199.948,366.024,198.458z"/>
</svg>