<?xml version="1.0" encoding="iso-8859-1"?>
<!-- Uploaded to: SVG Repo, www.svgrepo.com, Generator: SVG Repo Mixer Tools -->
<svg height="800px" width="800px" version="1.1" id="Layer_1" xmlns="http://www.w3.org/2000/svg" xmlns:xlink="http://www.w3.org/1999/xlink" 
	 viewBox="0 0 512 512" xml:space="preserve">
<path style="fill:#8C1A00;" d="M456.348,22.261v467.478c0,12.295-9.966,22.261-22.261,22.261H77.913
	c-12.295,0-22.261-9.966-22.261-22.261V22.261C55.652,9.966,65.618,0,77.913,0h356.174C446.382,0,456.348,9.966,456.348,22.261z"/>
<path style="fill:#659F00;" d="M411.826,55.652v400.696c0,6.147-4.983,11.13-11.13,11.13H111.304c-6.147,0-11.13-4.983-11.13-11.13
	V55.652c0-6.147,4.983-11.13,11.13-11.13h289.391C406.843,44.522,411.826,49.505,411.826,55.652z"/>
<path style="fill:#496300;" d="M411.826,55.652v22.261h-267.13c-6.147,0-11.13,4.984-11.13,11.13v378.435h-22.261
	c-6.147,0-11.13-4.984-11.13-11.13V55.652c0-6.146,4.983-11.13,11.13-11.13h289.391C406.843,44.522,411.826,49.506,411.826,55.652z"
	/>
<path style="fill:#4F2000;" d="M144.696,256c0,15.368-12.458,27.826-27.826,27.826S89.043,271.368,89.043,256
	s12.458-27.826,27.826-27.826S144.696,240.632,144.696,256z M116.87,422.957c-15.368,0-27.826,12.458-27.826,27.826
	s12.458,27.826,27.826,27.826s27.826-12.458,27.826-27.826S132.237,422.957,116.87,422.957z M116.87,33.391
	c-15.368,0-27.826,12.458-27.826,27.826s12.458,27.826,27.826,27.826s27.826-12.458,27.826-27.826S132.237,33.391,116.87,33.391z
	 M395.13,228.174c-15.368,0-27.826,12.458-27.826,27.826s12.458,27.826,27.826,27.826c15.368,0,27.826-12.458,27.826-27.826
	S410.498,228.174,395.13,228.174z M395.13,422.957c-15.368,0-27.826,12.458-27.826,27.826s12.458,27.826,27.826,27.826
	c15.368,0,27.826-12.458,27.826-27.826S410.498,422.957,395.13,422.957z M395.13,89.043c15.368,0,27.826-12.458,27.826-27.826
	s-12.458-27.826-27.826-27.826c-15.368,0-27.826,12.458-27.826,27.826S379.763,89.043,395.13,89.043z"/>
<path style="fill:#FFFFA9;" d="M311.652,336.696H200.348H100.174v16.696h92.388c4.106,31.358,30.979,55.652,63.438,55.652
	s59.332-24.294,63.438-55.652h92.388v-16.696H311.652z M256,392.348c-23.235,0-42.613-16.841-46.566-38.957h93.134
	C298.613,375.506,279.235,392.348,256,392.348z"/>
<path style="fill:#E1DE9C;" d="M133.565,353.391h-33.391v-16.696h33.391V353.391z"/>
</svg>