<?xml version="1.0" encoding="iso-8859-1"?>
<!-- Uploaded to: SVG Repo, www.svgrepo.com, Generator: SVG Repo Mixer Tools -->
<svg version="1.1" id="Layer_1" xmlns="http://www.w3.org/2000/svg" xmlns:xlink="http://www.w3.org/1999/xlink" 
	 viewBox="0 0 512 512" xml:space="preserve">
<rect x="7.875" y="25.665" style="fill:#ED7149;" width="496.246" height="318.319"/>
<rect x="95.915" y="95.851" style="fill:#F18D6D;" width="320.167" height="192.102"/>
<rect x="143.94" y="271.941" style="fill:#F9B233;" width="224.116" height="32.017"/>
<rect x="143.94" y="271.941" style="fill:#FAC15C;" width="128.065" height="32.017"/>
<g>
	<path style="fill:#1D1D1B;" d="M375.931,311.834H136.068v-47.765h239.863L375.931,311.834L375.931,311.834z M151.818,296.084
		h208.364v-16.266H151.818V296.084z"/>
	<polygon style="fill:#1D1D1B;" points="512,351.854 368.057,351.854 368.057,336.105 496.25,336.105 496.25,31.693 15.75,31.693 
		15.75,336.105 143.943,336.105 143.943,351.854 0,351.854 0,15.943 512,15.943 	"/>
	<polygon style="fill:#1D1D1B;" points="423.956,295.826 384.065,295.826 384.065,280.076 408.206,280.076 408.206,103.729 
		103.794,103.729 103.794,280.076 127.935,280.076 127.935,295.826 88.044,295.826 88.044,87.979 423.956,87.979 	"/>
	<path style="fill:#1D1D1B;" d="M344.174,319.968v16.137h-16.267v-16.137h-15.75v16.137h-16.266v-16.137h-15.75v16.137h-16.266
		v-16.137h-15.75v16.137h-16.267v-16.137h-15.75v16.137h-16.267v-16.137h-15.75v16.137h-16.267v-16.137h-15.75v176.089h15.75
		v-16.138h16.267v16.138h15.75v-16.138h16.267v16.138h15.75v-16.138h16.267v16.138h15.75v-16.138h16.266v16.138h15.75v-16.138
		h16.267v16.138h15.75v-16.138h16.267v16.138h15.75V319.968H344.174z M184.093,464.169h-16.267v-16.267h16.267V464.169z
		 M184.093,432.153h-16.267v-16.266h16.267V432.153z M184.093,400.137h-16.267V383.87h16.267V400.137z M184.093,368.12h-16.267
		v-16.266h16.267V368.12z M216.11,464.169h-16.267v-16.267h16.267V464.169z M216.11,432.153h-16.267v-16.266h16.267V432.153z
		 M216.11,400.137h-16.267V383.87h16.267V400.137z M216.11,368.12h-16.267v-16.266h16.267V368.12z M248.125,464.169h-16.267v-16.267
		h16.267V464.169z M248.125,432.153h-16.267v-16.266h16.267V432.153z M248.125,400.137h-16.267V383.87h16.267V400.137z
		 M248.125,368.12h-16.267v-16.266h16.267V368.12z M280.142,464.169h-16.266v-16.267h16.266V464.169z M280.142,432.153h-16.266
		v-16.266h16.266V432.153z M280.142,400.137h-16.266V383.87h16.266V400.137z M280.142,368.12h-16.266v-16.266h16.266V368.12z
		 M312.158,464.169h-16.266v-16.267h16.267v16.267H312.158z M312.158,432.153h-16.266v-16.266h16.267v16.266H312.158z
		 M312.158,400.137h-16.266V383.87h16.267v16.267H312.158z M312.158,368.12h-16.266v-16.266h16.267v16.266H312.158z
		 M344.174,464.169h-16.267v-16.267h16.267V464.169z M344.174,432.153h-16.267v-16.266h16.267V432.153z M344.174,400.137h-16.267
		V383.87h16.267V400.137z M344.174,368.12h-16.267v-16.266h16.267V368.12z"/>
</g>
<g>
	<rect x="39.891" y="47.959" style="fill:#FFFFFF;" width="64.032" height="15.75"/>
	<rect x="119.927" y="47.959" style="fill:#FFFFFF;" width="16.008" height="15.75"/>
	<rect x="151.951" y="47.959" style="fill:#FFFFFF;" width="16.008" height="15.75"/>
</g>
</svg>